<?xml version="1.0" encoding="UTF-8"?>
<svg viewBox="0 0 360.09 340.35999" xmlns="http://www.w3.org/2000/svg" xmlns:xlink="http://www.w3.org/1999/xlink">
 <defs>
  <filter id="j">
   <feGaussianBlur stdDeviation="1.80225"/>
  </filter>
  <linearGradient id="a">
   <stop stop-color="#fff" offset="0"/>
   <stop stop-color="#fff" stop-opacity="0" offset="1"/>
  </linearGradient>
  <linearGradient id="i" x1="651.39" x2="806.19" y1="406.97" y2="557.98" gradientUnits="userSpaceOnUse">
   <stop stop-color="#fb9a3e" offset="0"/>
   <stop stop-color="#ffc15a" offset="1"/>
  </linearGradient>
  <linearGradient id="b" x1="651.39" x2="806.19" y1="406.97" y2="557.98" gradientUnits="userSpaceOnUse">
   <stop stop-color="#fb9a3e" offset="0"/>
   <stop stop-opacity="0" offset="1"/>
  </linearGradient>
  <linearGradient id="h" x1="630.9" x2="844.64" y1="575.07" y2="496.87" gradientUnits="userSpaceOnUse" xlink:href="#a"/>
  <linearGradient id="g" x1="687.88" x2="800.72" y1="358.45" y2="563.76" gradientUnits="userSpaceOnUse" xlink:href="#a"/>
  <radialGradient id="d" cx="693.63" cy="591.41" r="97.436" gradientTransform="matrix(1.8812 .92604 -.43529 .88425 -813.73 -590.7)" gradientUnits="userSpaceOnUse">
   <stop stop-color="#fcfcff" offset="0"/>
   <stop stop-color="#9f9fa1" offset="1"/>
  </radialGradient>
  <radialGradient id="c" cx="703.44" cy="550.54" r="127.38" gradientTransform="matrix(.24755 -.80724 1.8009 .55227 -936.21 804.57)" gradientUnits="userSpaceOnUse">
   <stop stop-color="#f0edf5" offset="0"/>
   <stop stop-color="#616162" offset="1"/>
  </radialGradient>
  <radialGradient id="f" cx="792.32" cy="560.01" r="62.556" fx="748.22" fy="565.48" gradientTransform="matrix(.65994 .08598 -.08579 .65852 322.12 120.74)" gradientUnits="userSpaceOnUse" xlink:href="#a"/>
  <radialGradient id="e" cx="720.94" cy="470.61" r="92.933" gradientTransform="matrix(1 0 0 1.1231 -418.04 -30.483)" gradientUnits="userSpaceOnUse" xlink:href="#a"/>
 </defs>
 <g transform="translate(-148.57 -392)">
  <path d="m297.99 685.43c-63.515-14.701-153.04-61.408-122.17-257.06 51.517 0.76369 95.448-5.3685 122.17-27.148 31.546 17.082 66.558 31.044 120.47 27.997 27.113 175.55-66.174 246.07-120.47 256.21z" fill="url(#c)" stroke="#000"/>
  <path d="m297.96 406.33c-31.991 22.971-73.339 25.4-111.62 26.094-7.009-2.101-8.3497 2.3232-8.2812 8.375-7.2847 54.867-8.3563 113.7 16.406 164.56 16.777 33.429 47.684 58.862 83.315 70.184 9.279 2.7129 19.294 7.8139 28.829 3.6189 47.414-14.547 82.226-55.965 98.428-101.63 16.506-45.894 17.037-96.283 9.9906-144.11-40.518 2.284-81.406-7.5141-116.56-27.469l-0.5 0.375z" fill="#e7e7e9"/>
  <path d="m298.21 436.64c-29.28 15.571-63.024 20.464-96.031 21.406-5.103 47.426-4.7968 98.389 18.73 141.13 16.847 28.306 45.971 50.679 79.364 54.341 31.527-9.4381 55.505-35.322 70.927-63.576 20.881-39.736 25.124-86.224 20.51-130.42-32.137-1.3836-63.279-10.672-92.688-23.25l-0.8125 0.375z" fill="url(#d)"/>
  <path d="m213.56 573.03 122.42-118.79-36.422-13.295c-29.99 14.952-61.402 19.948-93.334 21.303-5.2134 42.636-2.7213 82.23 7.3333 110.78z" fill="#0284c0"/>
  <path d="m260.35 634.35 128.28-129.49c-2.1464 72.316-42.336 130.66-89.046 144.46-14.593-1.202-27.229-7.2994-39.235-14.969z" fill="#024c79"/>
  <path d="m213.72 573.11 121.85-119.31c17.214 5.3668 34.747 8.4978 52.612 9.309 1.5099 18.907 0.085 31.487 0.89487 41.524l-128.34 129.55c-17.699-8.4346-41.186-36.133-47.022-61.072z" fill="#bbe7f9"/>
  <path d="m178.6 433.63c47.807-4.8503 75.13-1.2577 119.09-27.15 0 0 60.681 30.051 117.16 27.433l1.4177 8.9788c-64.45-0.0497-118.37-30.244-118.37-30.244s-22.345 21.53-120.26 30.195z" fill="#fff"/>
  <path d="m299.11 440.67c-28.565 14.9-61.275 20.124-93.312 21.25-4.6865 46.277-3.9605 96.127 19.875 137.34 16.076 25.95 43.315 46.459 74.188 50.156 37.794-12.169 63.947-46.649 77.219-82.75 11.888-32.847 14.251-68.635 10.938-103.38-30.755-1.7506-60.673-10.772-88.906-22.625z" fill="url(#e)"/>
  <g transform="translate(-405.15 36.294)">
   <path d="m740.68 655.43c13.69 23.303 114.71 36.567 153.94 2.7989 12.52-81.338-157.1-90.252-153.94-2.7989z" fill="#68b7d6" stroke="#145b83"/>
   <path d="m769.53 606.62c0.1505 19.315 73.101 41.304 97.26-2.0992 0.4255-6.52-1.8971-8.4018-3.5281-9.8255-45.957 26.304-62.062 20.819-88.176 0.49907-2.8436-1.2862-5.8654 5.4735-5.5568 11.426z" fill="#48a6d0" stroke="#145b83"/>
   <path d="m851.68 675.47c-2.418-13.29-10.243-37.735-47.971-47.087 8.3972-6.041 0.4802-14.405-3.2201-15.541 29.833 1.376 39.929-5.9921 61.484-17.67 3.7605-2.4501 7.9171 14.775 1.1073 9.5838 9.7168 2.3052 36.668 21.598 31.055 53.372-12.847 9.6984-25.347 14.776-42.455 17.343z" fill="#1b7eb5"/>
   <path d="m866.47 605.81c-25.29 39.336-93.966 23.123-97.202-0.59239" fill="none" stroke="#145b83" stroke-linecap="round" stroke-linejoin="round" stroke-width="1.9"/>
   <path d="m881.87 551.03c2.7988 34.2-27.659 59.44-61.575 61.925-38.205 2.7988-60.609-12.334-62.275-61.225-1.8793-55.164 28.268-62.625 62.275-62.625s58.785 27.839 61.575 61.925z" fill="url(#i)" stroke="url(#b)"/>
   <path d="m819.06 493.06c-17.688-0.056-38.911 2.5522-49.188 18.781-11.325 20.715-9.0668 46.116-3.478 68.203 4.6592 15.178 18.249 27.349 34.353 28.422 27.551 4.4064 59.603-6.6872 72.594-32.594 10.177-21.863 2.568-48.515-13.27-65.707-10.581-11.07-25.747-17.531-41.012-17.105z" fill="url(#f)" filter="url(#j)" stroke="url(#b)"/>
   <path d="m862.35 551.3-24.7-4.5114c-3.365-2.4412-6.658-6.2806-10.048-8.2456l-35.795-2.0901-5.9494 4.1818-7.4727-0.13497c-2.0069-3.0925-2.4519-6.868-9.5756-7.7228l-15.927-0.56977c-2.7263 0.43974-4.117 1.8726-4.9292 3.7356-1.4576 8.4375-1.294 22.112 2.6103 26.812 10.713 4.6112 18.846 4.1206 23.261-6.2834l11.19 0.57546c-1.5412 19.116 43.534 32.712 51.773 1.6652l26.11 1.3427 7.7923-6.0816z" stroke="#000"/>
   <path d="m859.11 579.13c13.803-45.473 0.916-62.147-48.98-60.175-12.24 7.3912-25.084 9.3534-39.184 0-9.8055 0.15865-10.551-2.7028-15.394-4.1983-4.0256-16.67 30.89-63.218 83.966-44.782 106.45 33.901 40.321 121.97 19.592 109.16z" stroke="#000"/>
   <path d="m812.91 467.77c-23.779 0.86507-47.88 16.783-55.156 40-0.42087 2.4452-1.6932 6.1218 1.8125 6.5312 4.9237 3.8107 11.652 1.1312 16.281 5.25 10.55 6.1276 23.923 3.9692 33.719-2.5625 16.633-0.30167 35.958-0.93714 48.875 11.188 11.232 11.775 8.1921 29.94 4.6324 44.22-0.3068 2.3806-3.342 6.8348 1.0238 5.9986 12.306-1.9352 20.796-13.642 26.375-24.125 9.2845-17.495 7.8594-40.608-5.807-55.416-15.091-16.804-37.156-25.64-58.787-30.303-4.2866-0.66694-8.6326-0.94673-12.969-0.78125z" fill="url(#h)"/>
   <path d="m752.88 534.24c-5.3485 1.315-2.9613 8.6881-3.7812 12.688 0.47568 4.6842-0.18695 10.874 3.2812 14.406 6.1516 3.156 15.753 3.5865 18.812-4 1.5232-5.8876 9.4114-1.2719 13.906-2.2812 3.8001-0.46205 0.665 4.9668 2.7812 7.1562 6.6113 11.884 23.268 15.765 35.313 10.688 6.5387-2.8959 10.724-9.4298 12.062-16.281 9.1868 0.0446 18.953 1.8813 27.789 0.79151 8.1446-4.322-5.572-4.401-9.0004-5.583-7.7531-2.1767-17.341-0.7691-22.757-7.8335-5.1152-6.3908-14.256-2.9124-21.283-4.4652-7.784 0.50053-16.948-3.8481-22.998 2.7465-3.9894 0.2686-10.462 2.0252-11.75-3.2188-3.5166-7.0828-13.307-3.4796-19.492-4.7462-0.95701 5e-3 -1.9317-0.13513-2.8833-0.0663z" fill="url(#g)"/>
  </g>
 </g>
</svg>
